<svg id="svg2" xmlns="http://www.w3.org/2000/svg" xml:space="preserve" height="402.0098" viewBox="0 0 402.00979 402.00979" width="402.0098" version="1.1">
  <g id="g10" transform="matrix(1.25 0 0 -1.25 -259.2684 680.0096)">
    <g id="g3694" transform="translate(64.37678 -406.4711)">
      <path id="path22" d="m463.6258 781.3618c-4.5911-88.2456-79.8512-156.062-168.0969-151.4709-88.24665 4.59115-156.062 79.85121-151.4709 168.0969 4.59114 88.24665 79.85021 156.0621 168.0969 151.4709 88.24565-4.59109 156.0621-79.85021 151.4709-168.0969" fill="#ffec01"/>
      <g fill="#001220">
        <path id="path26" d="m298.2541 845.9185c-10.93355-17.68382-23.33625-29.82783-27.70574-27.12516-4.37063 2.69973 0.94713 19.22476 11.88062 36.90758 10.9325 17.68288 23.33626 29.82783 27.70679 27.12611 4.36953-2.70168-0.95017-19.2256-11.88167-36.90853"/>
        <path id="path30" d="m371.4109 795.6567c-11.21952-17.50272-23.81908-29.44623-28.14377-26.67179-4.32595 2.7695 1.26064 19.20745 12.48017 36.71017 11.21852 17.50277 23.81797 29.44428 28.14377 26.67178 4.3248-2.77244-1.26364-19.20729-12.48017-36.71016"/>
        <path id="path34" d="m347.3382 708.5533c-3.66981 7.74012-8.52866 13.12384-10.84899 12.02291-1.95479-0.92669-1.47907-6.16048 0.90935-12.41201-39.29296-19.4758-88.72123 17.16078-88.72123 17.16078s-29.34852 20.34631-33.49967 61.35137c7.46473-0.10298 13.19271 1.3644 13.35439 3.60603 0.18546 2.56383-6.968 5.16601-15.9754 5.81587-9.01045 0.64903-16.4632-0.90386-16.64556-3.46584-0.16565-2.27947 5.48313-4.58608 13.07357-5.52572 0.5533-13.26967 5.27651-52.63323 40.93137-75.69686 0 0 43.19695-32.55431 89.97209-8.74641 3.52091-6.69497 7.77129-11.12879 9.89359-10.1197 2.32222 1.09883 1.2272 8.26741-2.44351 16.00958"/>
      </g>
      <path id="path38" d="m279.2485 892.7583s-2.26083 15.17095 3.62683 4.34844c0 0 0.1955-7.02064 5.76711-7.73108 0 0 5.35746 0.56241-1.58789 9.89787 0 0-7.56742 13.66162-8.37492 22.35332 0 0-1.5554 11.79274-9.83529 11.06695 0 0-8.62103-1.72041-8.02799-15.34262 0 0 1.13442-5.98803-7.15343-17.99164 0 0-4.8386-6.83384 1.71293-8.76483 0 0 4.37991-1.96322 4.99736 7.11396 0 0-0.52598 3.78644 1.90721 8.86588 0 0 2.98786 4.616 1.87046-5.73693 0 0 0.20086-4.4925-3.01561-7.94004 0 0-5.01114-10.15035-2.93858-23.12756 0 0 0.86643-4.96072 4.84051-5.31267 0 0 5.10462 0.61061 3.02246 17.48358 0 0-1.37303 12.50723 1.91122 14.50529 0 0 2.29811 2.48295 3.6699-7.2765l6.82767-31.19087c5.41204-20.11836 9.25402-65.98792 9.25402-65.98792-0.35341-15.6658 8.50743-13.82068 8.50743-13.82068 7.02027 1.93987 3.29551 14.59048 3.29551 14.59048s-3.9675 12.43093-6.79217 20.19017c0 0-13.2434 64.33296-13.48474 79.8074" fill="#e41f25"/>
    </g>
  </g>
</svg>
